<svg width="387" height="76" viewBox="0 0 387 76" fill="none" xmlns="http://www.w3.org/2000/svg">
<rect width="387" height="76" rx="24" fill="#CA9494"/>
<path d="M145.982 35.784H148.14V45.3H145.982V35.784ZM156.434 22.524H158.566V46.028H156.434V22.524ZM139.456 37.136L139.196 35.316C140.739 35.2987 142.385 35.2813 144.136 35.264C145.887 35.2467 147.672 35.1947 149.492 35.108C151.312 35.004 153.08 34.8653 154.796 34.692L154.9 36.304C153.167 36.5467 151.399 36.7287 149.596 36.85C147.793 36.9713 146.034 37.0493 144.318 37.084C142.602 37.1187 140.981 37.136 139.456 37.136ZM141.406 30.558H153.028V32.326H141.406V30.558ZM141.406 23.824H152.716V25.566H143.564V31.572H141.406V23.824ZM163.218 41.322H184.538V43.116H163.218V41.322ZM172.76 36.304H174.892V42.076H172.76V36.304ZM165.818 24.24H181.886V31.364H168.002V36.07H165.87V29.648H179.754V26.008H165.818V24.24ZM165.87 35.16H182.432V36.928H165.87V35.16ZM203.048 22.498H205.206V46.002H203.048V22.498ZM204.634 32.04H208.95V33.834H204.634V32.04ZM197.042 25.02H199.148C199.148 27.256 198.784 29.3967 198.056 31.442C197.328 33.47 196.184 35.3507 194.624 37.084C193.064 38.8 191.01 40.2907 188.462 41.556L187.266 39.892C189.45 38.8 191.261 37.526 192.7 36.07C194.156 34.5967 195.239 32.9673 195.95 31.182C196.678 29.3793 197.042 27.438 197.042 25.358V25.02ZM188.358 25.02H198.134V26.814H188.358V25.02ZM228.188 22.498H230.346V46.028H228.188V22.498ZM221.298 25.046H223.43C223.43 26.7447 223.222 28.3827 222.806 29.96C222.407 31.5373 221.775 33.0367 220.908 34.458C220.041 35.862 218.915 37.1707 217.528 38.384C216.141 39.5973 214.46 40.6807 212.484 41.634L211.34 39.892C213.611 38.8 215.483 37.526 216.956 36.07C218.429 34.614 219.521 32.9933 220.232 31.208C220.943 29.4053 221.298 27.464 221.298 25.384V25.046ZM212.432 25.046H222.208V26.788H212.432V25.046Z" fill="white"/>
</svg>
