<svg width="387" height="76" viewBox="0 0 387 76" fill="none" xmlns="http://www.w3.org/2000/svg">
<rect width="387" height="76" rx="24" fill="#94B1CA"/>
<path d="M176.462 34.548H178.594V37.538H176.462V34.548ZM186.368 23.524H188.526V39.28H186.368V23.524ZM187.616 30.622H191.958V32.416H187.616V30.622ZM170.43 38.604L170.17 36.862C171.574 36.862 173.108 36.8533 174.772 36.836C176.453 36.8013 178.169 36.732 179.92 36.628C181.671 36.524 183.352 36.3593 184.964 36.134L185.12 37.668C183.456 37.9627 181.749 38.1793 179.998 38.318C178.265 38.4393 176.575 38.5173 174.928 38.552C173.299 38.5867 171.799 38.604 170.43 38.604ZM173.056 40.476H188.526V47.028H186.368V42.192H173.056V40.476ZM170.768 25.63H184.262V27.268H170.768V25.63ZM177.502 28.152C179.166 28.152 180.492 28.464 181.48 29.088C182.485 29.712 182.988 30.5613 182.988 31.636C182.988 32.7107 182.485 33.56 181.48 34.184C180.492 34.808 179.166 35.12 177.502 35.12C175.855 35.12 174.529 34.808 173.524 34.184C172.519 33.56 172.016 32.7107 172.016 31.636C172.016 30.5613 172.519 29.712 173.524 29.088C174.529 28.464 175.855 28.152 177.502 28.152ZM177.502 29.66C176.462 29.66 175.63 29.8333 175.006 30.18C174.382 30.5267 174.07 31.012 174.07 31.636C174.07 32.2253 174.382 32.7107 175.006 33.092C175.63 33.456 176.462 33.638 177.502 33.638C178.542 33.638 179.374 33.456 179.998 33.092C180.622 32.7107 180.934 32.2253 180.934 31.636C180.934 31.012 180.622 30.5267 179.998 30.18C179.374 29.8333 178.542 29.66 177.502 29.66ZM176.462 23.316H178.594V26.436H176.462V23.316ZM211.326 23.524H213.484V40.684H211.326V23.524ZM198.378 44.74H214.212V46.508H198.378V44.74ZM198.378 38.942H200.536V45.338H198.378V38.942ZM200.874 25.162C202.053 25.162 203.101 25.4047 204.02 25.89C204.939 26.3753 205.667 27.06 206.204 27.944C206.741 28.8107 207.01 29.8073 207.01 30.934C207.01 32.0607 206.741 33.066 206.204 33.95C205.667 34.8167 204.939 35.5013 204.02 36.004C203.101 36.4893 202.053 36.732 200.874 36.732C199.713 36.732 198.664 36.4893 197.728 36.004C196.809 35.5013 196.081 34.8167 195.544 33.95C195.007 33.066 194.738 32.0607 194.738 30.934C194.738 29.8073 195.007 28.8107 195.544 27.944C196.081 27.06 196.809 26.3753 197.728 25.89C198.664 25.4047 199.713 25.162 200.874 25.162ZM200.874 27.034C200.111 27.034 199.427 27.1987 198.82 27.528C198.213 27.8573 197.728 28.3167 197.364 28.906C197.017 29.4953 196.844 30.1713 196.844 30.934C196.844 31.714 197.017 32.3987 197.364 32.988C197.728 33.56 198.213 34.0107 198.82 34.34C199.427 34.6693 200.111 34.834 200.874 34.834C201.637 34.834 202.321 34.6693 202.928 34.34C203.552 34.0107 204.037 33.56 204.384 32.988C204.731 32.3987 204.904 31.714 204.904 30.934C204.904 30.1713 204.731 29.4953 204.384 28.906C204.037 28.3167 203.552 27.8573 202.928 27.528C202.321 27.1987 201.637 27.034 200.874 27.034Z" fill="white"/>
</svg>
