<svg width="497" height="76" viewBox="0 0 497 76" fill="none" xmlns="http://www.w3.org/2000/svg">
<rect width="497" height="76" rx="24" fill="#94B1CA"/>
<path d="M249.535 24.5098V31.3398H252.912V33.0156H249.535V39.6426H247.529V24.5098H249.535ZM231.812 37.332C233.615 37.332 235.723 37.332 237.932 37.2559V35.6055C235.304 35.377 233.615 34.1455 233.615 32.2793C233.615 30.2227 235.723 28.9531 238.896 28.9531C242.096 28.9531 244.178 30.2227 244.203 32.2793C244.178 34.1328 242.527 35.3643 239.912 35.6055V37.1797C242.02 37.0781 244.152 36.9131 246.133 36.6211L246.311 38.0684C241.41 38.9316 236.002 38.957 232.041 38.957L231.812 37.332ZM249.535 40.7598V47.0566H247.529V42.3594H234.58V40.7598H249.535ZM245.447 26.5664V28.0898H232.371V26.5664H237.932V24.3066H239.912V26.5664H245.447ZM238.896 30.375C236.814 30.3496 235.52 31.0859 235.52 32.2793C235.52 33.4473 236.814 34.2598 238.896 34.2344C240.979 34.2598 242.299 33.4473 242.299 32.2793C242.299 31.0859 240.979 30.3496 238.896 30.375ZM273.021 24.5098V41.0137H271.041V24.5098H273.021ZM273.732 44.8984V46.5742H258.447V39.3379H260.428V44.8984H273.732ZM260.834 26.084C264.211 26.084 266.75 28.3691 266.75 31.6191C266.75 34.9199 264.211 37.1797 260.834 37.1797C257.457 37.1797 254.918 34.9199 254.918 31.6191C254.918 28.3691 257.457 26.084 260.834 26.084ZM260.834 27.8359C258.549 27.8359 256.848 29.4102 256.873 31.6191C256.848 33.8789 258.549 35.4277 260.834 35.4277C263.068 35.4277 264.795 33.8789 264.795 31.6191C264.795 29.4102 263.068 27.8359 260.834 27.8359Z" fill="white"/>
</svg>
