<svg width="1100" height="790" viewBox="0 0 1100 790" fill="none" xmlns="http://www.w3.org/2000/svg">
<rect width="1100" height="790" rx="20" fill="white"/>
<path d="M0 20C0 8.95431 8.9543 0 20 0H1080C1091.05 0 1100 8.95431 1100 20V56H0V20Z" fill="#CCDEEE"/>
<path d="M243.867 19.6172V21.1797H230.928V19.6172H236.445V17.1758H238.35V19.6172H243.867ZM237.397 22.3027C240.522 22.3271 242.598 23.8408 242.622 26.2334C242.598 28.6016 240.522 30.1396 237.397 30.1396C234.272 30.1396 232.148 28.6016 232.173 26.2334C232.148 23.8408 234.272 22.3271 237.397 22.3027ZM237.397 23.792C235.347 23.8164 233.979 24.7686 234.004 26.2334C233.979 27.6738 235.347 28.6016 237.397 28.6016C239.424 28.6016 240.791 27.6738 240.815 26.2334C240.791 24.7686 239.424 23.8164 237.397 23.792ZM247.847 17.2734V23.3037H251.118V24.915H247.847V30.8477H245.942V17.2734H247.847ZM247.847 32.0439V38.9775H245.942V33.6064H233.638V32.0439H247.847ZM270.479 17.2979V33.3623H268.55V25.0127H263.423V29.6514H253.584V18.7383H255.488V22.5957H261.543V18.7383H263.423V23.4014H268.55V17.2979H270.479ZM270.967 36.9023V38.5137H256.44V31.7754H258.369V36.9023H270.967ZM255.488 28.0645H261.543V24.1094H255.488V28.0645Z" fill="#848484"/>
<path d="M78.8467 17.2734V21.8145H82.1182V23.4258H78.8467V28.2354H76.9424V17.2734H78.8467ZM64.8574 18.25V25.5254C67.9458 25.5376 71.1318 25.3179 74.6475 24.5977L74.8916 26.209C71.1807 26.9658 67.9336 27.1855 64.6621 27.1855H62.9287V18.25H64.8574ZM78.8467 29.2852V34.583H66.957V37.1221H79.6523V38.6846H65.0527V33.0693H76.9424V30.8232H65.0039V29.2852H78.8467ZM100.795 17.2734V25.916H103.871V27.5518H100.795V38.9775H98.8662V17.2734H100.795ZM88.417 23.8164C88.417 26.1846 88.7466 29.7124 90.5654 32.0684C92.3232 29.7734 92.6895 26.2944 92.7139 23.8164V21.1064H91.0293V19.4951H97.0596V21.1064H94.5205V23.8164C94.5205 27.0146 95.2529 31.0674 97.9629 33.0205L96.6934 34.4365C95.082 33.1914 94.1299 31.1284 93.6172 28.8701C93.1289 31.165 92.2134 33.3257 90.541 34.6074C88.8809 33.3257 87.9775 31.1406 87.4893 28.8701C86.9644 31.1162 86.0244 33.1792 84.4375 34.4365L83.168 33.0205C85.8291 31.043 86.5859 26.8682 86.6104 23.8164V21.1064H83.876V19.4951H90.0771V21.1064H88.417V23.8164Z" fill="#848484"/>
<path d="M430.774 16.2734V38.0264H428.846V16.2734H430.774ZM419.227 17.958C422.449 17.9824 424.769 20.9121 424.769 25.5264C424.769 30.1406 422.449 33.0703 419.227 33.0703C415.979 33.0703 413.685 30.1406 413.685 25.5264C413.685 20.9121 415.979 17.9824 419.227 17.958ZM419.227 19.667C417.054 19.6914 415.54 21.9863 415.54 25.5264C415.54 29.0664 417.054 31.3613 419.227 31.3613C421.399 31.3613 422.913 29.0664 422.913 25.5264C422.913 21.9863 421.399 19.6914 419.227 19.667ZM454.334 27.4795V29.0664H434.461V27.4795H454.334ZM451.771 16.8105V21.9375H438.953V24.1104H452.234V25.5996H437.049V20.4971H449.842V18.3486H436.976V16.8105H451.771ZM451.771 31.0439V37.6846H437.171V31.0439H451.771ZM439.051 32.6064V36.1221H449.891V32.6064H439.051Z" fill="#848484"/>
<path d="M599.774 16.2734V37.9775H597.846V16.2734H599.774ZM589.887 23.3535C589.887 26.9912 592.426 30.5068 595.697 31.8984L594.623 33.3877C592.121 32.2769 589.997 29.9209 588.983 27.04C588.007 30.0918 585.895 32.5942 583.393 33.7783L582.318 32.2891C585.541 30.8242 588.007 27.1621 588.007 23.3535V21.6201H582.904V20.0576H587.982V16.6885H589.887V20.0576H594.94V21.6201H589.887V23.3535ZM623.358 33.6807V35.292H603.485V33.6807H609.076V29.5547H605.976V22.8652H618.964V19.4717H605.927V17.8848H620.844V24.4521H607.88V27.9678H621.356V29.5547H617.963V33.6807H623.358ZM610.956 33.6807H616.083V29.5547H610.956V33.6807ZM635.102 29.9209C639.569 29.9209 642.255 31.3857 642.255 33.9248C642.255 36.4883 639.569 37.9531 635.102 37.9775C630.634 37.9531 627.899 36.4883 627.899 33.9248C627.899 31.3857 630.634 29.9209 635.102 29.9209ZM635.102 31.4346C631.83 31.459 629.804 32.3623 629.828 33.9248C629.804 35.4873 631.83 36.415 635.102 36.415C638.397 36.415 640.399 35.4873 640.399 33.9248C640.399 32.3623 638.397 31.459 635.102 31.4346ZM642.06 16.2734V21.7422H645.331V23.3779H642.06V29.335H640.155V16.2734H642.06ZM627.899 17.6406V20.9609H634.223V17.6406H636.127V27.6504H626.02V17.6406H627.899ZM627.899 26.0879H634.223V22.4746H627.899V26.0879ZM649.701 17.3965V20.7656H655.756V17.3965H657.636V21.6201H662.763V16.2734H664.691V28.1387H662.763V23.2314H657.636V27.333H647.797V17.3965H649.701ZM649.701 25.7705H655.756V22.2793H649.701V25.7705ZM652.631 29.1885V31.8496H662.763V29.1885H664.667V37.6846H650.702V29.1885H652.631ZM652.631 36.0977H662.763V33.3877H652.631V36.0977Z" fill="#848484"/>
<path d="M830.679 27.6006V29.1875H810.903V27.6006H830.679ZM820.791 31.0918C825.454 31.0918 828.237 32.5322 828.262 35.0225C828.237 37.5371 825.454 38.9287 820.791 38.9287C816.104 38.9287 813.296 37.5371 813.296 35.0225C813.296 32.5322 816.104 31.0918 820.791 31.0918ZM820.791 32.6055C817.3 32.6299 815.225 33.4844 815.249 35.0225C815.225 36.5361 817.3 37.3906 820.791 37.3906C824.233 37.3906 826.333 36.5361 826.333 35.0225C826.333 33.4844 824.233 32.6299 820.791 32.6055ZM828.921 18.3965V19.9834H822.036C822.109 22.4492 825.723 24.3291 829.58 24.7686L828.872 26.3066C825.32 25.855 821.987 24.2681 820.791 21.8389C819.607 24.2681 816.287 25.855 812.71 26.3066L812.026 24.7686C815.811 24.3291 819.448 22.4492 819.546 19.9834H812.71V18.3965H828.921ZM839.761 20.7891C839.761 23.7432 842.007 26.4531 845.156 27.5273L844.106 29.041C841.702 28.1621 839.81 26.3677 838.857 24.1094C837.93 26.6606 836.001 28.6748 833.462 29.6514L832.437 28.1133C835.684 26.8926 837.856 23.9873 837.881 20.6426V18.3965H839.761V20.7891ZM849.478 17.2734V22.9375H852.749V24.5488H849.478V30.4814H847.573V17.2734H849.478ZM842.52 31.043C846.987 31.043 849.673 32.4834 849.673 34.9736C849.673 37.5127 846.987 38.9287 842.52 38.9287C838.052 38.9287 835.317 37.5127 835.317 34.9736C835.317 32.4834 838.052 31.043 842.52 31.043ZM842.52 32.5811C839.248 32.5811 837.222 33.4844 837.246 34.9736C837.222 36.5117 839.248 37.3906 842.52 37.415C845.815 37.3906 847.817 36.5117 847.817 34.9736C847.817 33.4844 845.815 32.5811 842.52 32.5811Z" fill="#848484"/>
<path d="M1097.71 120.5V56.5V56L1098.28 120V56.5H1099.43V120.5H1097.71Z" stroke="white"/>
<rect y="56" width="2.29406" height="65" fill="white"/>
<path d="M1008.54 17.5098V24.3398H1011.91V26.0156H1008.54V32.6426H1006.53V17.5098H1008.54ZM990.812 30.332C992.615 30.332 994.723 30.332 996.932 30.2559V28.6055C994.304 28.377 992.615 27.1455 992.615 25.2793C992.615 23.2227 994.723 21.9531 997.896 21.9531C1001.1 21.9531 1003.18 23.2227 1003.2 25.2793C1003.18 27.1328 1001.53 28.3643 998.912 28.6055V30.1797C1001.02 30.0781 1003.15 29.9131 1005.13 29.6211L1005.31 31.0684C1000.41 31.9316 995.002 31.957 991.041 31.957L990.812 30.332ZM1008.54 33.7598V40.0566H1006.53V35.3594H993.58V33.7598H1008.54ZM1004.45 19.5664V21.0898H991.371V19.5664H996.932V17.3066H998.912V19.5664H1004.45ZM997.896 23.375C995.814 23.3496 994.52 24.0859 994.52 25.2793C994.52 26.4473 995.814 27.2598 997.896 27.2344C999.979 27.2598 1001.3 26.4473 1001.3 25.2793C1001.3 24.0859 999.979 23.3496 997.896 23.375ZM1032.02 17.5098V34.0137H1030.04V17.5098H1032.02ZM1032.73 37.8984V39.5742H1017.45V32.3379H1019.43V37.8984H1032.73ZM1019.83 19.084C1023.21 19.084 1025.75 21.3691 1025.75 24.6191C1025.75 27.9199 1023.21 30.1797 1019.83 30.1797C1016.46 30.1797 1013.92 27.9199 1013.92 24.6191C1013.92 21.3691 1016.46 19.084 1019.83 19.084ZM1019.83 20.8359C1017.55 20.8359 1015.85 22.4102 1015.87 24.6191C1015.85 26.8789 1017.55 28.4277 1019.83 28.4277C1022.07 28.4277 1023.79 26.8789 1023.79 24.6191C1023.79 22.4102 1022.07 20.8359 1019.83 20.8359Z" fill="#848484"/>
</svg>
