<svg width="985" height="791" viewBox="0 0 985 791" fill="none" xmlns="http://www.w3.org/2000/svg">
<g filter="url(#filter0_f_334_52)">
<rect x="4" y="4" width="977" height="783" rx="58" fill="white"/>
</g>
<path opacity="0.5" d="M418.411 173V155.495H428.262V156.997H419.986V163.503H426.688V165.004H419.986V171.499H428.262V173H418.411ZM438.626 173L437.796 171.73C437.454 172.194 437.027 172.565 436.514 172.841C436.001 173.11 435.44 173.244 434.83 173.244H434.451C433.947 173.244 433.471 173.151 433.023 172.963C432.575 172.768 432.185 172.504 431.851 172.17C431.517 171.836 431.253 171.446 431.058 170.998C430.87 170.55 430.777 170.074 430.777 169.57V163.93C430.777 163.426 430.87 162.95 431.058 162.502C431.253 162.054 431.517 161.664 431.851 161.33C432.185 160.996 432.575 160.736 433.023 160.549C433.471 160.354 433.947 160.256 434.451 160.256H434.83C435.391 160.256 435.912 160.37 436.392 160.598C436.872 160.826 437.283 161.143 437.625 161.55V155.495H439.126V173H438.626ZM437.625 163.845C437.625 163.544 437.568 163.263 437.454 163.002C437.34 162.734 437.186 162.502 436.99 162.307C436.795 162.111 436.563 161.957 436.294 161.843C436.034 161.729 435.753 161.672 435.452 161.672H434.451C434.15 161.672 433.865 161.729 433.597 161.843C433.336 161.957 433.108 162.111 432.913 162.307C432.718 162.502 432.563 162.734 432.449 163.002C432.335 163.263 432.278 163.544 432.278 163.845V169.655C432.278 169.956 432.335 170.241 432.449 170.51C432.563 170.77 432.718 170.998 432.913 171.193C433.108 171.389 433.336 171.543 433.597 171.657C433.865 171.771 434.15 171.828 434.451 171.828H435.452C435.753 171.828 436.034 171.771 436.294 171.657C436.563 171.543 436.795 171.389 436.99 171.193C437.186 170.998 437.34 170.77 437.454 170.51C437.568 170.241 437.625 169.956 437.625 169.655V163.845ZM442.508 157.497V155.495H444.253V157.497H442.508ZM442.63 173V160.5H444.131V173H442.63ZM452.2 173C451.744 173 451.313 172.915 450.906 172.744C450.507 172.573 450.158 172.337 449.856 172.036C449.563 171.735 449.327 171.385 449.148 170.986C448.978 170.587 448.892 170.16 448.892 169.704V161.928H446.646V160.5H448.892V157.497L450.394 157.253V160.5H453.567V161.928H450.394V169.777C450.394 170.03 450.438 170.266 450.528 170.485C450.625 170.697 450.756 170.884 450.918 171.047C451.081 171.21 451.272 171.34 451.492 171.438C451.712 171.527 451.948 171.572 452.2 171.572H453.567V173H452.2ZM470.45 169.57C470.45 170.074 470.352 170.55 470.157 170.998C469.97 171.446 469.709 171.836 469.375 172.17C469.042 172.504 468.651 172.768 468.204 172.963C467.756 173.151 467.28 173.244 466.775 173.244H466.397C465.835 173.244 465.315 173.13 464.834 172.902C464.354 172.674 463.943 172.357 463.602 171.95V178.005H462.1V160.5H462.601L463.418 161.77C463.76 161.306 464.188 160.939 464.7 160.671C465.221 160.394 465.787 160.256 466.397 160.256H466.775C467.28 160.256 467.756 160.354 468.204 160.549C468.651 160.736 469.042 160.996 469.375 161.33C469.709 161.664 469.97 162.054 470.157 162.502C470.352 162.95 470.45 163.426 470.45 163.93V169.57ZM468.948 163.845C468.948 163.544 468.891 163.263 468.777 163.002C468.663 162.734 468.509 162.502 468.313 162.307C468.118 162.111 467.886 161.957 467.618 161.843C467.357 161.729 467.076 161.672 466.775 161.672H465.774C465.473 161.672 465.188 161.729 464.92 161.843C464.66 161.957 464.432 162.111 464.236 162.307C464.041 162.502 463.886 162.734 463.772 163.002C463.659 163.263 463.602 163.544 463.602 163.845V169.655C463.602 169.956 463.659 170.241 463.772 170.51C463.886 170.77 464.041 170.998 464.236 171.193C464.432 171.389 464.66 171.543 464.92 171.657C465.188 171.771 465.473 171.828 465.774 171.828H466.775C467.076 171.828 467.357 171.771 467.618 171.657C467.886 171.543 468.118 171.389 468.313 171.193C468.509 170.998 468.663 170.77 468.777 170.51C468.891 170.241 468.948 169.956 468.948 169.655V163.845ZM481.302 173L480.472 171.755C480.13 172.202 479.703 172.565 479.19 172.841C478.677 173.11 478.116 173.244 477.505 173.244H477.127C476.622 173.244 476.146 173.151 475.699 172.963C475.251 172.768 474.861 172.504 474.527 172.17C474.193 171.836 473.929 171.446 473.733 170.998C473.546 170.55 473.453 170.074 473.453 169.57V169.448C473.453 168.943 473.546 168.467 473.733 168.02C473.929 167.572 474.193 167.181 474.527 166.848C474.861 166.514 475.251 166.254 475.699 166.066C476.146 165.871 476.622 165.773 477.127 165.773H480.301V163.845C480.301 163.544 480.244 163.263 480.13 163.002C480.016 162.734 479.861 162.502 479.666 162.307C479.471 162.111 479.239 161.957 478.97 161.843C478.71 161.729 478.429 161.672 478.128 161.672H477.249C476.948 161.672 476.663 161.729 476.395 161.843C476.134 161.957 475.906 162.111 475.711 162.307C475.516 162.502 475.361 162.734 475.247 163.002C475.133 163.263 475.076 163.544 475.076 163.845V164.296L473.575 164.052V163.93C473.575 163.426 473.668 162.95 473.855 162.502C474.051 162.054 474.315 161.664 474.649 161.33C474.983 160.996 475.373 160.736 475.821 160.549C476.268 160.354 476.744 160.256 477.249 160.256H478.128C478.632 160.256 479.109 160.354 479.556 160.549C480.004 160.736 480.394 160.996 480.728 161.33C481.062 161.664 481.322 162.054 481.509 162.502C481.705 162.95 481.802 163.426 481.802 163.93V173H481.302ZM480.301 166.945H477.127C476.826 166.945 476.541 167.002 476.272 167.116C476.012 167.23 475.784 167.389 475.589 167.592C475.394 167.788 475.239 168.02 475.125 168.288C475.011 168.549 474.954 168.829 474.954 169.13V169.655C474.954 169.956 475.011 170.241 475.125 170.51C475.239 170.77 475.394 170.998 475.589 171.193C475.784 171.389 476.012 171.543 476.272 171.657C476.541 171.771 476.826 171.828 477.127 171.828H478.128C478.429 171.828 478.71 171.771 478.97 171.657C479.239 171.543 479.471 171.389 479.666 171.193C479.861 170.998 480.016 170.77 480.13 170.51C480.244 170.241 480.301 169.956 480.301 169.655V166.945ZM493.399 169.826C493.399 170.331 493.297 170.795 493.094 171.218C492.89 171.633 492.614 171.991 492.264 172.292C491.914 172.593 491.507 172.829 491.043 173C490.587 173.163 490.107 173.244 489.603 173.244H488.602C488.097 173.244 487.613 173.151 487.149 172.963C486.693 172.768 486.29 172.504 485.94 172.17C485.599 171.836 485.322 171.446 485.11 170.998C484.907 170.55 484.805 170.074 484.805 169.57V169.069L486.307 168.825V169.655C486.307 169.956 486.368 170.241 486.49 170.51C486.62 170.77 486.791 170.998 487.002 171.193C487.214 171.389 487.458 171.543 487.735 171.657C488.012 171.771 488.3 171.828 488.602 171.828H489.603C489.904 171.828 490.193 171.783 490.469 171.694C490.746 171.604 490.99 171.478 491.202 171.315C491.421 171.145 491.592 170.941 491.714 170.705C491.845 170.469 491.91 170.201 491.91 169.899C491.91 169.452 491.812 169.086 491.617 168.801C491.421 168.516 491.161 168.28 490.835 168.093C490.518 167.897 490.152 167.739 489.737 167.617C489.33 167.486 488.911 167.36 488.479 167.238C488.048 167.108 487.625 166.962 487.21 166.799C486.803 166.636 486.437 166.424 486.111 166.164C485.794 165.896 485.538 165.562 485.342 165.163C485.147 164.764 485.049 164.268 485.049 163.674C485.049 163.169 485.147 162.709 485.342 162.294C485.538 161.871 485.802 161.509 486.136 161.208C486.469 160.907 486.856 160.675 487.295 160.512C487.743 160.341 488.219 160.256 488.724 160.256H489.603C490.107 160.256 490.583 160.354 491.031 160.549C491.478 160.736 491.869 160.996 492.203 161.33C492.536 161.664 492.797 162.054 492.984 162.502C493.179 162.95 493.277 163.426 493.277 163.93V163.979L491.775 164.223V163.845C491.775 163.544 491.718 163.263 491.604 163.002C491.491 162.734 491.336 162.502 491.141 162.307C490.945 162.111 490.713 161.957 490.445 161.843C490.184 161.729 489.904 161.672 489.603 161.672H488.724C488.423 161.672 488.138 161.717 487.869 161.806C487.609 161.896 487.381 162.026 487.186 162.197C486.99 162.36 486.836 162.559 486.722 162.795C486.608 163.031 486.551 163.299 486.551 163.601C486.551 164.032 486.648 164.386 486.844 164.663C487.039 164.931 487.295 165.159 487.613 165.346C487.938 165.533 488.305 165.692 488.711 165.822C489.126 165.944 489.546 166.075 489.969 166.213C490.4 166.343 490.819 166.494 491.226 166.665C491.641 166.835 492.007 167.055 492.325 167.324C492.65 167.592 492.911 167.93 493.106 168.337C493.301 168.736 493.399 169.232 493.399 169.826ZM504.874 169.826C504.874 170.331 504.772 170.795 504.568 171.218C504.365 171.633 504.088 171.991 503.738 172.292C503.388 172.593 502.981 172.829 502.518 173C502.062 173.163 501.582 173.244 501.077 173.244H500.076C499.572 173.244 499.087 173.151 498.624 172.963C498.168 172.768 497.765 172.504 497.415 172.17C497.073 171.836 496.797 171.446 496.585 170.998C496.382 170.55 496.28 170.074 496.28 169.57V169.069L497.781 168.825V169.655C497.781 169.956 497.842 170.241 497.964 170.51C498.095 170.77 498.265 170.998 498.477 171.193C498.689 171.389 498.933 171.543 499.209 171.657C499.486 171.771 499.775 171.828 500.076 171.828H501.077C501.378 171.828 501.667 171.783 501.944 171.694C502.221 171.604 502.465 171.478 502.676 171.315C502.896 171.145 503.067 170.941 503.189 170.705C503.319 170.469 503.384 170.201 503.384 169.899C503.384 169.452 503.287 169.086 503.091 168.801C502.896 168.516 502.636 168.28 502.31 168.093C501.993 167.897 501.626 167.739 501.211 167.617C500.805 167.486 500.385 167.36 499.954 167.238C499.523 167.108 499.1 166.962 498.685 166.799C498.278 166.636 497.911 166.424 497.586 166.164C497.269 165.896 497.012 165.562 496.817 165.163C496.622 164.764 496.524 164.268 496.524 163.674C496.524 163.169 496.622 162.709 496.817 162.294C497.012 161.871 497.277 161.509 497.61 161.208C497.944 160.907 498.331 160.675 498.77 160.512C499.218 160.341 499.694 160.256 500.198 160.256H501.077C501.582 160.256 502.058 160.354 502.505 160.549C502.953 160.736 503.344 160.996 503.677 161.33C504.011 161.664 504.271 162.054 504.458 162.502C504.654 162.95 504.751 163.426 504.751 163.93V163.979L503.25 164.223V163.845C503.25 163.544 503.193 163.263 503.079 163.002C502.965 162.734 502.811 162.502 502.615 162.307C502.42 162.111 502.188 161.957 501.919 161.843C501.659 161.729 501.378 161.672 501.077 161.672H500.198C499.897 161.672 499.612 161.717 499.344 161.806C499.083 161.896 498.855 162.026 498.66 162.197C498.465 162.36 498.31 162.559 498.196 162.795C498.082 163.031 498.025 163.299 498.025 163.601C498.025 164.032 498.123 164.386 498.318 164.663C498.514 164.931 498.77 165.159 499.087 165.346C499.413 165.533 499.779 165.692 500.186 165.822C500.601 165.944 501.02 166.075 501.443 166.213C501.875 166.343 502.294 166.494 502.701 166.665C503.116 166.835 503.482 167.055 503.799 167.324C504.125 167.592 504.385 167.93 504.581 168.337C504.776 168.736 504.874 169.232 504.874 169.826ZM518.277 173H517.459L514.529 163.576L514.48 162.929L514.432 163.576L511.502 173H510.672L506.497 160.5H508.023L511.001 169.948L511.05 170.595L511.099 169.948L514.029 160.5H514.932L517.85 169.948L517.898 170.595L517.947 169.948L520.926 160.5H522.452L518.277 173ZM532.559 169.57C532.559 170.074 532.461 170.55 532.266 170.998C532.079 171.446 531.819 171.836 531.485 172.17C531.151 172.504 530.761 172.768 530.313 172.963C529.865 173.151 529.389 173.244 528.885 173.244H527.884C527.379 173.244 526.903 173.151 526.456 172.963C526.008 172.768 525.617 172.504 525.284 172.17C524.95 171.836 524.686 171.446 524.49 170.998C524.303 170.55 524.209 170.074 524.209 169.57V163.93C524.209 163.426 524.303 162.95 524.49 162.502C524.686 162.054 524.95 161.664 525.284 161.33C525.617 160.996 526.008 160.736 526.456 160.549C526.903 160.354 527.379 160.256 527.884 160.256H528.885C529.389 160.256 529.865 160.354 530.313 160.549C530.761 160.736 531.151 160.996 531.485 161.33C531.819 161.664 532.079 162.054 532.266 162.502C532.461 162.95 532.559 163.426 532.559 163.93V169.57ZM531.058 163.845C531.058 163.544 531.001 163.263 530.887 163.002C530.773 162.734 530.618 162.502 530.423 162.307C530.228 162.111 529.996 161.957 529.727 161.843C529.467 161.729 529.186 161.672 528.885 161.672H527.884C527.583 161.672 527.298 161.729 527.029 161.843C526.769 161.957 526.541 162.111 526.346 162.307C526.15 162.502 525.996 162.734 525.882 163.002C525.768 163.263 525.711 163.544 525.711 163.845V169.655C525.711 169.956 525.768 170.241 525.882 170.51C525.996 170.77 526.15 170.998 526.346 171.193C526.541 171.389 526.769 171.543 527.029 171.657C527.298 171.771 527.583 171.828 527.884 171.828H528.885C529.186 171.828 529.467 171.771 529.727 171.657C529.996 171.543 530.228 171.389 530.423 171.193C530.618 170.998 530.773 170.77 530.887 170.51C531.001 170.241 531.058 169.956 531.058 169.655V163.845ZM539.236 161.928C538.935 161.928 538.65 161.985 538.382 162.099C538.121 162.213 537.894 162.368 537.698 162.563C537.503 162.758 537.348 162.99 537.234 163.259C537.12 163.519 537.063 163.8 537.063 164.101V173H535.562V160.5H536.062L536.88 161.77C537.222 161.306 537.649 160.939 538.162 160.671C538.683 160.394 539.249 160.256 539.859 160.256H540.738V161.928H539.236ZM550.589 173L549.759 171.73C549.417 172.194 548.99 172.565 548.477 172.841C547.964 173.11 547.403 173.244 546.792 173.244H546.414C545.91 173.244 545.433 173.151 544.986 172.963C544.538 172.768 544.148 172.504 543.814 172.17C543.48 171.836 543.216 171.446 543.021 170.998C542.833 170.55 542.74 170.074 542.74 169.57V163.93C542.74 163.426 542.833 162.95 543.021 162.502C543.216 162.054 543.48 161.664 543.814 161.33C544.148 160.996 544.538 160.736 544.986 160.549C545.433 160.354 545.91 160.256 546.414 160.256H546.792C547.354 160.256 547.875 160.37 548.355 160.598C548.835 160.826 549.246 161.143 549.588 161.55V155.495H551.089V173H550.589ZM549.588 163.845C549.588 163.544 549.531 163.263 549.417 163.002C549.303 162.734 549.148 162.502 548.953 162.307C548.758 162.111 548.526 161.957 548.257 161.843C547.997 161.729 547.716 161.672 547.415 161.672H546.414C546.113 161.672 545.828 161.729 545.56 161.843C545.299 161.957 545.071 162.111 544.876 162.307C544.681 162.502 544.526 162.734 544.412 163.002C544.298 163.263 544.241 163.544 544.241 163.845V169.655C544.241 169.956 544.298 170.241 544.412 170.51C544.526 170.77 544.681 170.998 544.876 171.193C545.071 171.389 545.299 171.543 545.56 171.657C545.828 171.771 546.113 171.828 546.414 171.828H547.415C547.716 171.828 547.997 171.771 548.257 171.657C548.526 171.543 548.758 171.389 548.953 171.193C549.148 170.998 549.303 170.77 549.417 170.51C549.531 170.241 549.588 169.956 549.588 169.655V163.845Z" fill="black"/>
<path d="M370.528 76.855H377.843V127.95H370.528V76.855ZM338.078 80.925H345.338V93.355H355.898V80.925H363.158V116.07H338.078V80.925ZM345.338 99.02V110.24H355.898V99.02H345.338ZM388.729 79.44H413.424V101.055H388.729V79.44ZM406.274 85.16H395.934V95.28H406.274V85.16ZM421.179 76.965H428.494V102.595H421.179V76.965ZM394.504 104.85H428.494V118.655H401.819V123.88H394.614V113.43H421.234V110.46H394.504V104.85ZM394.614 121.845H429.759V127.565H394.614V121.845ZM460.83 90.44H473.92V96.325H460.83V90.44ZM472.05 76.965H479.42V114.53H472.05V76.965ZM445.705 121.13H480.52V127.015H445.705V121.13ZM445.705 110.845H453.02V124.485H445.705V110.845ZM438.885 80.32H446.145V88.02H455.825V80.32H463.03V106.61H438.885V80.32ZM446.145 93.63V100.78H455.825V93.63H446.145ZM489.37 83.29H531.335V89.12H489.37V83.29ZM487.39 116.895H533.535V122.78H487.39V116.895ZM506.695 110.13H514.01V119.205H506.695V110.13ZM510.325 91.265C513.845 91.265 516.889 91.6683 519.455 92.475C522.059 93.245 524.057 94.3817 525.45 95.885C526.844 97.3517 527.54 99.13 527.54 101.22C527.54 103.31 526.844 105.107 525.45 106.61C524.057 108.077 522.059 109.213 519.455 110.02C516.889 110.79 513.827 111.175 510.27 111.175C506.75 111.175 503.689 110.79 501.085 110.02C498.519 109.213 496.539 108.077 495.145 106.61C493.752 105.107 493.055 103.31 493.055 101.22C493.055 99.13 493.752 97.3517 495.145 95.885C496.539 94.3817 498.519 93.245 501.085 92.475C503.689 91.6683 506.769 91.265 510.325 91.265ZM510.27 96.93C508.18 96.93 506.402 97.095 504.935 97.425C503.469 97.7183 502.35 98.1767 501.58 98.8C500.847 99.4233 500.48 100.23 500.48 101.22C500.48 102.173 500.847 102.98 501.58 103.64C502.35 104.263 503.469 104.722 504.935 105.015C506.402 105.308 508.18 105.455 510.27 105.455C512.434 105.455 514.23 105.308 515.66 105.015C517.09 104.722 518.172 104.263 518.905 103.64C519.675 102.98 520.06 102.173 520.06 101.22C520.06 100.23 519.675 99.4233 518.905 98.8C518.172 98.1767 517.09 97.7183 515.66 97.425C514.23 97.095 512.434 96.93 510.27 96.93ZM506.695 77.46H514.01V86.92H506.695V77.46ZM569.91 78.395H576.29V80.815C576.29 82.7583 575.979 84.6467 575.355 86.48C574.769 88.2767 573.889 89.9633 572.715 91.54C571.542 93.1167 570.112 94.5283 568.425 95.775C566.739 97.0217 564.777 98.085 562.54 98.965C560.34 99.8083 557.92 100.45 555.28 100.89L552.42 95.005C554.767 94.7117 556.857 94.2167 558.69 93.52C560.56 92.8233 562.192 91.9983 563.585 91.045C565.015 90.0917 566.189 89.0467 567.105 87.91C568.022 86.7733 568.719 85.6 569.195 84.39C569.672 83.18 569.91 81.9883 569.91 80.815V78.395ZM571.285 78.395H577.665V80.815C577.665 81.9883 577.904 83.18 578.38 84.39C578.857 85.6 579.554 86.7733 580.47 87.91C581.387 89.0467 582.542 90.0917 583.935 91.045C585.365 91.9983 586.997 92.8233 588.83 93.52C590.7 94.2167 592.809 94.7117 595.155 95.005L592.295 100.89C589.619 100.45 587.18 99.8083 584.98 98.965C582.78 98.085 580.837 97.0217 579.15 95.775C577.464 94.4917 576.034 93.0617 574.86 91.485C573.687 89.9083 572.789 88.2217 572.165 86.425C571.579 84.6283 571.285 82.7583 571.285 80.815V78.395ZM569.91 109.195H577.225V127.895H569.91V109.195ZM550.715 104.575H596.805V110.515H550.715V104.575ZM628.921 89.23H638.601V95.17H628.921V89.23ZM636.566 76.965H643.936V107.215H636.566V76.965ZM626.666 108.315C630.259 108.315 633.358 108.7 635.961 109.47C638.564 110.24 640.563 111.358 641.956 112.825C643.386 114.292 644.101 116.052 644.101 118.105C644.101 121.258 642.543 123.678 639.426 125.365C636.309 127.088 632.056 127.95 626.666 127.95C621.276 127.95 617.023 127.088 613.906 125.365C610.789 123.678 609.231 121.258 609.231 118.105C609.231 116.052 609.928 114.292 611.321 112.825C612.751 111.358 614.768 110.24 617.371 109.47C619.974 108.7 623.073 108.315 626.666 108.315ZM626.666 113.87C624.466 113.87 622.614 114.035 621.111 114.365C619.608 114.658 618.453 115.117 617.646 115.74C616.876 116.363 616.491 117.152 616.491 118.105C616.491 119.058 616.876 119.865 617.646 120.525C618.453 121.148 619.608 121.625 621.111 121.955C622.614 122.248 624.466 122.395 626.666 122.395C628.866 122.395 630.718 122.248 632.221 121.955C633.724 121.625 634.861 121.148 635.631 120.525C636.401 119.865 636.786 119.058 636.786 118.105C636.786 117.152 636.401 116.363 635.631 115.74C634.861 115.117 633.724 114.658 632.221 114.365C630.718 114.035 628.866 113.87 626.666 113.87ZM613.081 82.025H619.021V85.27C619.021 88.4967 618.508 91.5767 617.481 94.51C616.454 97.4433 614.878 100.028 612.751 102.265C610.661 104.465 607.984 106.115 604.721 107.215L601.036 101.44C603.126 100.743 604.923 99.8083 606.426 98.635C607.966 97.4617 609.213 96.16 610.166 94.73C611.156 93.2633 611.889 91.7233 612.366 90.11C612.843 88.4967 613.081 86.8833 613.081 85.27V82.025ZM614.621 82.025H620.451V85.215C620.451 87.2317 620.854 89.2117 621.661 91.155C622.468 93.0983 623.714 94.8583 625.401 96.435C627.124 98.0117 629.324 99.2583 632.001 100.175L628.426 105.895C625.273 104.832 622.669 103.273 620.616 101.22C618.599 99.13 617.096 96.71 616.106 93.96C615.116 91.1733 614.621 88.2583 614.621 85.215V82.025ZM603.016 80.045H630.406V85.82H603.016V80.045Z" fill="black"/>
<path d="M334.353 252.002H336.262V267.872H334.353V252.002ZM330.834 257.522H335.135V259.086H330.834V257.522ZM330.834 261.892H335.135V263.433H330.834V261.892ZM319.173 254.532H330.834V256.073H319.173V254.532ZM325.061 257.2C325.996 257.2 326.817 257.369 327.522 257.706C328.227 258.043 328.779 258.511 329.178 259.109C329.577 259.707 329.776 260.397 329.776 261.179C329.776 261.961 329.577 262.659 329.178 263.272C328.779 263.87 328.227 264.338 327.522 264.675C326.817 264.997 325.996 265.158 325.061 265.158C324.141 265.158 323.328 264.997 322.623 264.675C321.918 264.338 321.366 263.87 320.967 263.272C320.568 262.659 320.369 261.961 320.369 261.179C320.369 260.397 320.568 259.707 320.967 259.109C321.366 258.511 321.918 258.043 322.623 257.706C323.328 257.369 324.141 257.2 325.061 257.2ZM325.061 258.718C324.202 258.718 323.505 258.948 322.968 259.408C322.431 259.853 322.163 260.443 322.163 261.179C322.163 261.93 322.431 262.536 322.968 262.996C323.505 263.441 324.202 263.663 325.061 263.663C325.92 263.663 326.617 263.441 327.154 262.996C327.706 262.536 327.982 261.93 327.982 261.179C327.982 260.443 327.706 259.853 327.154 259.408C326.617 258.948 325.92 258.718 325.061 258.718ZM324.141 251.979H326.027V255.498H324.141V251.979ZM322.899 270.77H336.745V272.334H322.899V270.77ZM322.899 266.492H324.808V271.506H322.899V266.492ZM356.201 251.979H358.041V272.794H356.201V251.979ZM352.912 260.374H356.914V261.984H352.912V260.374ZM351.67 252.416H353.487V271.736H351.67V252.416ZM344.609 255.199H346.081V257.614C346.081 258.841 345.982 260.014 345.782 261.133C345.583 262.252 345.276 263.28 344.862 264.215C344.464 265.15 343.965 265.986 343.367 266.722C342.769 267.443 342.072 268.041 341.274 268.516L340.078 267.044C341.09 266.492 341.926 265.748 342.585 264.813C343.245 263.862 343.743 262.774 344.08 261.547C344.433 260.32 344.609 259.009 344.609 257.614V255.199ZM344.954 255.199H346.449V257.614C346.449 258.871 346.618 260.067 346.955 261.202C347.293 262.337 347.791 263.349 348.45 264.238C349.11 265.112 349.93 265.802 350.911 266.308L349.784 267.78C348.726 267.182 347.837 266.377 347.116 265.365C346.396 264.353 345.851 263.188 345.483 261.869C345.131 260.55 344.954 259.132 344.954 257.614V255.199ZM340.584 254.44H350.221V256.004H340.584V254.44ZM381.878 251.979H383.787V272.817H381.878V251.979ZM367.94 253.75H369.849V259.224H375.852V253.75H377.738V267.803H367.94V253.75ZM369.849 260.742V266.216H375.852V260.742H369.849ZM389.006 253.129H398.712V261.639H389.006V253.129ZM396.849 254.67H390.869V260.121H396.849V254.67ZM403.059 251.979H404.968V262.674H403.059V251.979ZM391.513 263.732H404.968V268.746H393.422V271.667H391.559V267.343H403.082V265.25H391.513V263.732ZM391.559 271.023H405.658V272.564H391.559V271.023ZM418.905 257.844H424.862V259.408H418.905V257.844ZM424.287 252.002H426.196V267.389H424.287V252.002ZM412.833 270.77H426.679V272.334H412.833V270.77ZM412.833 265.894H414.742V271.552H412.833V265.894ZM410.096 253.382H412.005V257.039H417.617V253.382H419.503V263.847H410.096V253.382ZM412.005 258.534V262.306H417.617V258.534H412.005ZM431.162 255.038H448.067V256.602H431.162V255.038ZM430.242 268.792H449.102V270.356H430.242V268.792ZM438.683 265.48H440.569V269.39H438.683V265.48ZM439.626 257.982C441.021 257.982 442.225 258.143 443.237 258.465C444.264 258.772 445.054 259.216 445.606 259.799C446.158 260.382 446.434 261.095 446.434 261.938C446.434 262.766 446.158 263.479 445.606 264.077C445.054 264.675 444.264 265.135 443.237 265.457C442.225 265.764 441.021 265.917 439.626 265.917C438.23 265.917 437.019 265.764 435.992 265.457C434.98 265.135 434.198 264.675 433.646 264.077C433.094 263.479 432.818 262.766 432.818 261.938C432.818 261.095 433.094 260.382 433.646 259.799C434.198 259.216 434.98 258.772 435.992 258.465C437.019 258.143 438.23 257.982 439.626 257.982ZM439.626 259.5C438.614 259.5 437.74 259.6 437.004 259.799C436.283 259.983 435.723 260.259 435.325 260.627C434.941 260.98 434.75 261.417 434.75 261.938C434.75 262.444 434.941 262.881 435.325 263.249C435.723 263.617 436.283 263.901 437.004 264.1C437.74 264.284 438.614 264.376 439.626 264.376C440.638 264.376 441.504 264.284 442.225 264.1C442.945 263.901 443.505 263.617 443.904 263.249C444.302 262.881 444.502 262.444 444.502 261.938C444.502 261.417 444.302 260.98 443.904 260.627C443.505 260.259 442.945 259.983 442.225 259.799C441.504 259.6 440.638 259.5 439.626 259.5ZM438.683 252.324H440.569V255.981H438.683V252.324Z" fill="#393838"/>
<path d="M461.144 260.073L459.212 263.296L457.875 262.33L460.357 259.522L456.696 258.691L457.202 257.153L460.661 258.624L460.312 254.896H461.941L461.604 258.624L465.052 257.153L465.557 258.691L461.896 259.522L464.378 262.33L463.053 263.296L461.144 260.073Z" fill="#FF0303"/>
<path d="M323.52 385.934H325.015V389.913C325.015 391.002 324.9 392.067 324.67 393.11C324.44 394.137 324.118 395.111 323.704 396.031C323.29 396.951 322.776 397.779 322.163 398.515C321.565 399.236 320.89 399.826 320.139 400.286L318.92 398.883C319.641 398.454 320.277 397.917 320.829 397.273C321.396 396.629 321.879 395.908 322.278 395.111C322.692 394.298 322.999 393.455 323.198 392.581C323.413 391.692 323.52 390.802 323.52 389.913V385.934ZM323.842 385.934H325.36V389.798C325.36 390.657 325.452 391.508 325.636 392.351C325.835 393.194 326.119 393.992 326.487 394.743C326.87 395.494 327.33 396.177 327.867 396.79C328.404 397.403 329.017 397.894 329.707 398.262L328.557 399.757C327.806 399.328 327.131 398.768 326.533 398.078C325.95 397.373 325.46 396.575 325.061 395.686C324.662 394.797 324.356 393.854 324.141 392.857C323.942 391.86 323.842 390.841 323.842 389.798V385.934ZM334.997 383.979H336.837V404.794H334.997V383.979ZM331.685 392.351H335.687V393.915H331.685V392.351ZM330.42 384.416H332.237V403.736H330.42V384.416ZM360.72 383.979H362.629V404.817H360.72V383.979ZM346.782 385.75H348.691V391.224H354.694V385.75H356.58V399.803H346.782V385.75ZM348.691 392.742V398.216H354.694V392.742H348.691ZM367.848 385.129H377.554V393.639H367.848V385.129ZM375.691 386.67H369.711V392.121H375.691V386.67ZM381.901 383.979H383.81V394.674H381.901V383.979ZM370.355 395.732H383.81V400.746H372.264V403.667H370.401V399.343H381.924V397.25H370.355V395.732ZM370.401 403.023H384.5V404.564H370.401V403.023ZM397.746 389.844H403.703V391.408H397.746V389.844ZM403.128 384.002H405.037V399.389H403.128V384.002ZM391.674 402.77H405.52V404.334H391.674V402.77ZM391.674 397.894H393.583V403.552H391.674V397.894ZM388.937 385.382H390.846V389.039H396.458V385.382H398.344V395.847H388.937V385.382ZM390.846 390.534V394.306H396.458V390.534H390.846ZM410.004 387.038H426.909V388.602H410.004V387.038ZM409.084 400.792H427.944V402.356H409.084V400.792ZM417.525 397.48H419.411V401.39H417.525V397.48ZM418.468 389.982C419.863 389.982 421.067 390.143 422.079 390.465C423.106 390.772 423.896 391.216 424.448 391.799C425 392.382 425.276 393.095 425.276 393.938C425.276 394.766 425 395.479 424.448 396.077C423.896 396.675 423.106 397.135 422.079 397.457C421.067 397.764 419.863 397.917 418.468 397.917C417.072 397.917 415.861 397.764 414.834 397.457C413.822 397.135 413.04 396.675 412.488 396.077C411.936 395.479 411.66 394.766 411.66 393.938C411.66 393.095 411.936 392.382 412.488 391.799C413.04 391.216 413.822 390.772 414.834 390.465C415.861 390.143 417.072 389.982 418.468 389.982ZM418.468 391.5C417.456 391.5 416.582 391.6 415.846 391.799C415.125 391.983 414.565 392.259 414.167 392.627C413.783 392.98 413.592 393.417 413.592 393.938C413.592 394.444 413.783 394.881 414.167 395.249C414.565 395.617 415.125 395.901 415.846 396.1C416.582 396.284 417.456 396.376 418.468 396.376C419.48 396.376 420.346 396.284 421.067 396.1C421.787 395.901 422.347 395.617 422.746 395.249C423.144 394.881 423.344 394.444 423.344 393.938C423.344 393.417 423.144 392.98 422.746 392.627C422.347 392.259 421.787 391.983 421.067 391.799C420.346 391.6 419.48 391.5 418.468 391.5ZM417.525 384.324H419.411V387.981H417.525V384.324Z" fill="#393838"/>
<path d="M439.985 392.073L438.054 395.296L436.717 394.33L439.199 391.522L435.538 390.691L436.043 389.153L439.502 390.624L439.154 386.896H440.783L440.446 390.624L443.894 389.153L444.399 390.691L440.738 391.522L443.22 394.33L441.895 395.296L439.985 392.073Z" fill="#FF0303"/>
<defs>
<filter id="filter0_f_334_52" x="0" y="0" width="985" height="791" filterUnits="userSpaceOnUse" color-interpolation-filters="sRGB">
<feFlood flood-opacity="0" result="BackgroundImageFix"/>
<feBlend mode="normal" in="SourceGraphic" in2="BackgroundImageFix" result="shape"/>
<feGaussianBlur stdDeviation="2" result="effect1_foregroundBlur_334_52"/>
</filter>
</defs>
</svg>
